<svg xmlns="http://www.w3.org/2000/svg" xmlns:xlink="http://www.w3.org/1999/xlink" version="1.1" x="0px" y="0px"  style="enable-background:new 0 0 32 32;" xml:space="preserve"><path d="M108.2,103.8c-0.5-2.1-1.4-4.2-2.6-6c-2.2-3.3-5.5-5.4-9.2-6.8c-3.5-1.4-7.3-2.2-11-3.3c-3.3-1-6.8-2.2-9.3-4.6   c-2.1-2-2.9-4.5-3.6-7.2c0.5-0.4,1-0.8,1.4-1.3c3.7-3.8,5.5-9,7.2-13.9c2-5.7,3.6-11.6,4.3-17.6c0.6-5.8,0.2-11.7-2.2-17.1   c-2.5-5.7-7.5-10-13.1-12.4c-11.3-4.9-25.3-1.6-31.4,9.6c-0.5,0.9-0.9,1.8-1.3,2.8c0-0.5,0-0.9,0-1.4c0-0.1-0.1-0.1-0.2,0   c-0.2,1-0.3,1.9-0.3,2.9c-1.2,3.9-1.4,8.1-1.1,12.1c0.4,5.8,1.8,11.5,3.9,16.9c2.1,5.4,5.1,10.4,9,14.7c0.8,0.9,1.7,1.7,2.6,2.5   c-0.5,1-0.9,2.1-1.2,3.2c-0.5,2-0.7,4-1.2,5.9c-0.4,1.7-1.1,3.3-2.5,4.4c-2.2,1.6-5.1,2-7.7,2.2c-3.5,0.2-6.7-0.2-10.1-0.7   c-3.2-0.6-6.6-1.2-9.8-0.8c-3,0.4-6.2,1.8-7.9,4.5C9.3,94.5,9,97.7,9,100.4c-0.1,3.5,0.2,7.8,2,10.9c0.6,1,1.9,0.7,2.4,0   c2.9,0.3,6.2-0.6,9-0.9c4.1-0.4,8.2-1.2,12.3-1.6c8.5-0.9,17-1.7,25.5-1.9c7.9-0.2,15.9,0.5,23.7,1.6c3.8,0.6,7.7,1.2,11.5,1.9   c1.9,0.3,3.8,0.7,5.7,1c1.8,0.3,3.9,1.2,5.5,0.3c0.1,0.2,0.1,0.3,0.2,0.5c0.3,0.9,1.4,0.8,1.7,0   C109.5,109.7,108.8,106.4,108.2,103.8z M74.2,83.8c-0.1,0-0.1-0.1-0.2-0.1c-0.9-0.7-1.5-1.7-2-2.7c-0.4-0.7-0.7-1.4-1.1-2.1   c0.1-0.4,0.2-0.8,0.3-1.2c0.1-0.3-0.1-0.6-0.3-0.8c0.2-0.1,0.3-0.2,0.5-0.3C71.7,79.2,72.6,81.7,74.2,83.8z M39,31.8   c0.3,4.6,2.6,9.1,4.9,12.9c0,0.6,0,1.2,0,1.8c0,0.1,0.2,0.1,0.2,0c0.3-7.4,0.6-14.8,2.6-21.8c-2,6.2-2.9,12.8-2.9,19.4   c-2.3-4.1-4.3-8.5-4.7-13.2c0-0.3,0-0.6,0-0.9c0-0.1,0-0.2,0-0.2c0.6-3.3,2.2-6.3,4.3-8.8c0.3-0.2,0.6-0.5,0.9-0.7   c-0.3,0.2-0.5,0.4-0.8,0.6c1.7-1.9,3.8-3.5,6.1-4.7c0.3-0.2,0.7-0.3,1.1-0.5c-1.8,2.9-3.1,5.9-4,9.1c1-3.1,2.4-6.2,4-9.1   c11-4.8,25.5,0.9,30.1,11.9c4.7,11.1,0.5,23.9-3.3,34.6c-2.2,6.2-7,16.2-15.2,12.6c-1.2-0.6-2.4-1.3-3.5-2.1c0.2,0,0.5-0.1,0.7-0.1   c-0.2,0-0.5,0.1-0.8,0.1c-1.9-1.5-3.5-3.3-5-5.1c-3-3.7-5.4-7.8-7.6-12c-2.8-5.3-5-10.9-6.6-16.7c-0.3-1.2-0.7-2.5-1-3.7   C38.8,34.1,38.9,32.9,39,31.8z M48.9,65.8c-3.9-5.2-6.5-11.2-8.1-17.5c-0.4-1.4-0.7-2.9-1-4.4c0.6,1.9,1.2,3.8,1.9,5.7   c2.7,7.2,6.2,14.7,11.3,20.6C51.6,68.9,50.2,67.4,48.9,65.8z M51.1,77.8c-0.2,2.2,0.1,4.4-0.8,6.6C50.8,82.3,50.8,79.9,51.1,77.8z    M14.8,92.1c-0.4,0.3-0.8,0.7-1.1,1.1C14,92.8,14.4,92.4,14.8,92.1z M13.3,109.8c0-0.1-0.1-0.2-0.1-0.3c0.5,0,1,0,1.5,0   C14.2,109.6,13.7,109.7,13.3,109.8z M12.8,108.7c-0.3-0.9-0.5-1.9-0.7-2.9c0.5-2.9,1.5-5.7,3.3-8c-1.6,3.4-2.3,7.2-0.7,10.7   C14.1,108.6,13.5,108.7,12.8,108.7z M102.5,108.2c-0.7-0.1-1.4-0.3-2.1-0.4c0-4.4-2.5-8.5-5.6-11.5c0,0-0.1,0-0.1,0.1   c1.7,1.8,3.1,3.7,4,5.9c0.7,1.8,0.9,3.6,1.1,5.4c-1.2-0.2-2.3-0.5-3.5-0.7c-3.8-0.7-7.6-1.4-11.5-2c-8-1.2-16-1.9-24.1-1.7   c-6.3,0.1-12.5,0.6-18.8,1.3c-4.8,0.2-9.6,0.5-14.4,1.2c-2.7,0.4-5.4,1.1-8,1.7c-0.4-3.4,0.8-6.5,2.8-9.3c0.1-0.1-0.1-0.1-0.1-0.1   c-2.1,2.9-3.4,6-3,9.5c-0.2,0-0.4,0.1-0.6,0.1c-1.1,0.2-2.3,0.5-3.5,0.8c-1.4-4.1-0.7-8.1,1.1-11.7c0.7-0.8,1.6-1.6,2.5-2.2   c0,0,0-0.1,0-0.1c-0.8,0.6-1.6,1.2-2.3,1.9c0.7-1.3,1.5-2.5,2.4-3.7c0-0.1-0.1-0.2-0.1-0.1c-1.1,1.4-2.2,2.9-3,4.6   c-1.9,2.2-3,4.8-3.7,7.7c-0.1-0.9-0.1-1.7-0.1-2.6c0-0.5,0-0.9,0-1.4c0.4-2.3,1.2-4.4,2.5-6.1c2.6-3.3,7.3-3.5,11.1-3.4   c1.1,0,2.3,0.1,3.6,0.2c0.7,0.1,1.5,0.3,2.2,0.4c2.2,0.3,4.3,0.3,6.5,0.2c6.6,0,12.9-1.3,14.9-8.1c0.3-1.2,0.5-2.4,0.5-3.6   c0.1-1.7,0-3-0.8-4.5c-0.2-0.4-0.8-0.4-1,0c0.1-0.6,0.3-1.2,0.5-1.9c1,0.8,2,1.5,3,2.1c2.4,1.4,4.9,1.8,7.6,2.1   c0.3,0,0.5-0.1,0.6-0.4c0.6,0.2,1.3,0.3,2,0.4c1.2,0.1,2.3,0,3.4-0.3c-0.8,1-1.1,2.4-0.9,3.9c0.3,2,1.8,3.7,3.3,5   c3.8,3.2,8.7,5.1,13.4,6.4c2.2,0.6,4.6,1,6.9,1.5c2.8,2.1,4.4,5.2,5,8.9c0,0.3,0.5,0.2,0.4-0.1c-0.8-3.9-2.5-6.8-5.3-8.8   c2.3,0.5,4.6,1.1,6.7,2.2c3.5,1.8,4.7,5.7,6,9.2c0.3,0.9,0.6,1.8,1,2.6C104.3,108.4,103.4,108.3,102.5,108.2z M104.3,102.7   c-0.6-1.7-1.2-3.4-2.3-4.8c-2.5-3.4-7.2-4.6-11.1-5.6c-2.2-0.6-4.4-0.9-6.6-1.6c-2.4-0.8-4.7-1.7-6.9-2.9c-2.7-1.4-8.5-4.5-6.7-8.3   c0.3,0.9,0.7,1.8,1.2,2.6c0.9,1.5,2.4,3.1,4.2,3.5c2.6,2.3,5.9,3.5,9.2,4.5c7,2.1,15.3,3.4,19,10.6c0.8,1.5,1.3,3.2,1.6,4.9   c0.2,1,0.2,1.9,0.3,2.9C105.6,106.6,104.9,104.6,104.3,102.7z"/><path d="M44.5,20.3c0.7-0.5,1.4-0.9,2.2-1.3C45.9,19.4,45.2,19.8,44.5,20.3z"/><path d="M47.7,18.5c-0.4,0.2-0.7,0.3-1.1,0.5C47,18.8,47.4,18.7,47.7,18.5C47.8,18.5,47.7,18.5,47.7,18.5z"/><path d="M78.7,55.7c0.2-0.2-0.2-0.4-0.4-0.2c-4.7,6.2-8.3,13.9-15.8,16.5c2.9-0.9,5.4-2.4,7.6-4.8C73.5,63.8,75.9,59.5,78.7,55.7z"/><path d="M59.8,72.6c1-0.1,1.9-0.4,2.7-0.7C61.6,72.2,60.7,72.4,59.8,72.6z"/></svg>